<svg xmlns="http://www.w3.org/2000/svg" version="1.1" xmlns:xlink="http://www.w3.org/1999/xlink" xmlns:svgjs="http://svgjs.dev/svgjs" width="1500" height="886" viewBox="0 0 1500 886"><g transform="matrix(1,0,0,1,-0.9084522071641459,-0.2777709566553881)"><svg viewBox="0 0 396 234" data-background-color="#ffffff" preserveAspectRatio="xMidYMid meet" height="886" width="1500" xmlns="http://www.w3.org/2000/svg" xmlns:xlink="http://www.w3.org/1999/xlink"><g id="tight-bounds" transform="matrix(1,0,0,1,0.24008861730862918,0.0733616296358548)"><svg viewBox="0 0 395.52 233.8532767407283" height="233.8532767407283" width="395.52"><g><svg viewBox="0 0 395.52 233.8532767407283" height="233.8532767407283" width="395.52"><g><svg viewBox="0 0 395.52 233.8532767407283" height="233.8532767407283" width="395.52"><g id="textblocktransform"><svg viewBox="0 0 395.52 233.8532767407283" height="233.8532767407283" width="395.52" id="textblock"><g><svg viewBox="0 0 395.52 175.25129570373792" height="175.25129570373792" width="395.52"><path d="M394.594 37.588C392.735 19.397 387.435 14.34 387.435 14.34 371.165-4.397 350.86-0.358 332.619 2.334 300.414 2.443 268.339 6.445 236.208 8.592 168.767 8.919 100.749 3.534 33.643 16.814 27.339 20.889-6.54 17.614 1.121 39.917 3.129 49.194 10.456 59.49 10.232 68.003 11.236 69.495 12.631 66.075 13.226 68.222 15.309 74.006 18.711 71.278 21.501 74.698 17.614 83.83 20.403 91.433 23.062 99.401 18.377 101.475 12.371 100.493 9.675 107.369 9.396 112.353 7.89 111.407 6.235 111.189 5.026 111.043 2.59 111.589 2.999 113.154 4.394 118.502-1.594 121.594 2.162 126.833-0.422 132.509 3.948 137.42 3.353 143.569 3.278 144.806 3.687 145.861 4.338 146.152 7.22 147.717 3.018 150.773 3.464 154.083 33.029 176.713 65.104 161.069 95.394 171.474 103.259 164.198 97.346 174.057 100.489 172.529 102.943 170.746 104.728 178.132 107.499 173.948 107.927 172.747 107.276 169.91 108.8 170.455 109.6 170.746 110.307 170.674 110.418 169 110.586 166.49 109.117 168.054 108.726 166.744 112.947 160.123 111.906 175.876 115.866 175.221 115.68 173.293 114.528 170.528 116.889 170.892 119.232 168.127 119.306 165.835 121.389 172.056 121.463 173.402 121.835 174.348 122.43 175.003 128.938 168.236 135.409 177.404 142.233 174.348 146.417 171.001 150.433 176.167 154.672 174.894 156.16 173.875 157.666 172.056 159.098 175.112 176.632 175.767 195.319 173.038 211.943 175.221 256.364 171.147 303.836 176.895 350.674 171.51 361.719 169.437 373.192 166.49 383.958 164.125 383.958 164.125 392.679 157.649 392.679 128.543S394.538 103.076 394.817 79.9C395.096 56.725 396.398 55.779 394.538 37.588Z" opacity="1" fill="#5010c2" data-fill-palette-color="tertiary"></path><g transform="matrix(1,0,0,1,55.76832,26.068561146666667)"><svg width="283.98335999999995" viewBox="3.2 -40 103.78999999999999 45" height="123.11417341040459" data-palette-color="#ffffff"><path d="M8.2-17.5L20.6-5.95 15.55-5.95 3.2-17.5 15.55-29.05 20.6-29.05 8.2-17.5ZM66.25-31.5L51.8-31.5 51.8-19.55 61.7-19.55 61.7-16.05 51.8-16.05 51.8-3.5 66.25-3.5 66.25 0 47.8 0 47.8-9.2 34.9-9.2 29.65 0 25.3 0 45.35-35 66.25-35 66.25-31.5ZM47.8-31.8L36.85-12.7 47.8-12.7 47.8-31.8ZM69.45 5L81.4-40 85.4-40 73.35 5 69.45 5ZM89.64-5.95L101.99-17.5 89.64-29.05 94.64-29.05 106.99-17.5 94.64-5.95 89.64-5.95Z" opacity="1" transform="matrix(1,0,0,1,0,0)" fill="#ffffff" class="wordmark-text-0" data-fill-palette-color="quaternary" id="text-0"></path></svg></g></svg></g><g transform="matrix(1,0,0,1,75.54432000000001,204.3155973057726)"><svg viewBox="0 0 244.43135999999996 29.53767943495569" height="29.53767943495569" width="244.43135999999996"><g transform="matrix(1,0,0,1,0,0)"><svg width="244.43135999999996" viewBox="4.6 -37.1 389.31 47.05" height="29.53767943495569" data-palette-color="#5010c2"><path d="M4.6 0L4.6-35 10.5-35 10.5 0 4.6 0ZM26.1-32.85L26.1-8.4Q26.1-6.25 26.85-5.48 27.6-4.7 28.95-4.7L28.95-4.7Q29.85-4.7 30.82-5 31.8-5.3 32.95-5.9L32.95-5.9 34.4-1.75Q32.85-0.8 31.2-0.28 29.55 0.25 27.85 0.25L27.85 0.25Q25.85 0.25 24.15-0.53 22.45-1.3 21.42-3 20.4-4.7 20.4-7.4L20.4-7.4 20.4-32.85 26.1-32.85ZM16.65-21.5L16.65-25.6 33.95-25.6 33.95-21.5 16.65-21.5ZM56.95-24.15L54.85-20.1Q53.1-21.15 51.02-21.78 48.95-22.4 47.2-22.4L47.2-22.4Q45.5-22.4 44.4-21.75 43.3-21.1 43.3-19.6L43.3-19.6Q43.3-18.35 44.32-17.63 45.35-16.9 46.95-16.4 48.55-15.9 50.35-15.35 52.15-14.8 53.77-13.93 55.4-13.05 56.4-11.55 57.4-10.05 57.4-7.6L57.4-7.6Q57.4-4.9 55.97-3.18 54.55-1.45 52.22-0.63 49.9 0.2 47.2 0.2L47.2 0.2Q44.3 0.2 41.4-0.75 38.5-1.7 36.5-3.5L36.5-3.5 38.55-7.4Q40.3-5.85 42.8-4.98 45.3-4.1 47.45-4.1L47.45-4.1Q48.7-4.1 49.67-4.42 50.65-4.75 51.22-5.4 51.8-6.05 51.8-7.1L51.8-7.1Q51.8-8.5 50.8-9.3 49.8-10.1 48.2-10.63 46.6-11.15 44.8-11.68 43-12.2 41.42-13.05 39.85-13.9 38.85-15.35 37.85-16.8 37.85-19.2L37.85-19.2Q37.85-21.9 39.25-23.58 40.65-25.25 42.87-26.03 45.1-26.8 47.65-26.8L47.65-26.8Q50.15-26.8 52.65-26.1 55.15-25.4 56.95-24.15L56.95-24.15ZM93.34-11.85L85.39-11.85Q82.59-11.85 81.24-11 79.89-10.15 79.89-8.2L79.89-8.2Q79.89-6.35 81.27-5.25 82.64-4.15 85.04-4.15L85.04-4.15Q87.19-4.15 88.89-4.9 90.59-5.65 91.59-6.93 92.59-8.2 92.64-9.8L92.64-9.8 93.74-4.95Q92.49-2.35 89.94-1.05 87.39 0.25 83.84 0.25L83.84 0.25Q80.99 0.25 78.89-0.85 76.79-1.95 75.64-3.83 74.49-5.7 74.49-8L74.49-8Q74.49-11.6 77.12-13.75 79.74-15.9 84.54-15.95L84.54-15.95 93.34-15.95 93.34-11.85ZM92.64 0L92.59-16.85Q92.59-19.45 90.99-20.9 89.39-22.35 86.24-22.35L86.24-22.35Q84.34-22.35 82.37-21.65 80.39-20.95 78.39-19.6L78.39-19.6 76.04-23.3Q77.89-24.45 79.54-25.2 81.19-25.95 83.07-26.35 84.94-26.75 87.49-26.75L87.49-26.75Q92.64-26.75 95.42-24.28 98.19-21.8 98.24-17.45L98.24-17.45 98.29 0 92.64 0ZM121.29-26.75L121.29-26.75Q125.09-26.75 127.94-25.05 130.79-23.35 132.39-20.3 133.99-17.25 133.99-13.2L133.99-13.2Q133.99-9.25 132.41-6.23 130.84-3.2 128.01-1.5 125.19 0.2 121.39 0.2L121.39 0.2Q117.74 0.2 115.16-1.4 112.59-3 111.24-6.03 109.89-9.05 109.89-13.2L109.89-13.2Q109.89-17.5 111.24-20.53 112.59-23.55 115.16-25.15 117.74-26.75 121.29-26.75ZM120.09-22.2L120.09-22.2Q117.74-22.2 115.89-21.05 114.04-19.9 113.01-17.93 111.99-15.95 111.99-13.35L111.99-13.35Q111.99-10.75 113.01-8.72 114.04-6.7 115.89-5.58 117.74-4.45 120.09-4.45L120.09-4.45Q122.49-4.45 124.31-5.6 126.14-6.75 127.16-8.75 128.19-10.75 128.19-13.35L128.19-13.35Q128.19-15.9 127.16-17.9 126.14-19.9 124.31-21.05 122.49-22.2 120.09-22.2ZM106.24 0L106.24-37.1 111.99-37.1 111.99 0 106.24 0ZM151.39-26.75L151.39-26.75Q155.49-26.75 158.61-25.05 161.74-23.35 163.49-20.33 165.24-17.3 165.24-13.3L165.24-13.3Q165.24-9.3 163.49-6.25 161.74-3.2 158.61-1.5 155.49 0.2 151.39 0.2L151.39 0.2Q147.29 0.2 144.14-1.5 140.99-3.2 139.24-6.25 137.49-9.3 137.49-13.3L137.49-13.3Q137.49-17.3 139.24-20.33 140.99-23.35 144.14-25.05 147.29-26.75 151.39-26.75ZM151.39-22.1L151.39-22.1Q148.99-22.1 147.14-20.98 145.29-19.85 144.26-17.85 143.24-15.85 143.24-13.25L143.24-13.25Q143.24-10.6 144.26-8.6 145.29-6.6 147.14-5.48 148.99-4.35 151.39-4.35L151.39-4.35Q153.79-4.35 155.61-5.48 157.44-6.6 158.46-8.6 159.49-10.6 159.49-13.25L159.49-13.25Q159.49-15.85 158.46-17.85 157.44-19.85 155.61-20.98 153.79-22.1 151.39-22.1ZM176.13-26.55L176.13-11.55Q176.13-8.45 177.78-6.68 179.43-4.9 182.33-4.9L182.33-4.9Q185.78-5 187.71-7.45 189.63-9.9 189.63-13.5L189.63-13.5 191.18-13.5Q191.18-8.6 189.83-5.6 188.48-2.6 186.01-1.23 183.53 0.15 180.13 0.2L180.13 0.2Q177.08 0.2 174.91-1.05 172.73-2.3 171.56-4.6 170.38-6.9 170.38-10.05L170.38-10.05 170.38-26.55 176.13-26.55ZM189.63 0L189.63-26.55 195.38-26.55 195.38 0 189.63 0ZM210.63-32.85L210.63-8.4Q210.63-6.25 211.38-5.48 212.13-4.7 213.48-4.7L213.48-4.7Q214.38-4.7 215.36-5 216.33-5.3 217.48-5.9L217.48-5.9 218.93-1.75Q217.38-0.8 215.73-0.28 214.08 0.25 212.38 0.25L212.38 0.25Q210.38 0.25 208.68-0.53 206.98-1.3 205.96-3 204.93-4.7 204.93-7.4L204.93-7.4 204.93-32.85 210.63-32.85ZM201.18-21.5L201.18-25.6 218.48-25.6 218.48-21.5 201.18-21.5ZM237.98 0L237.98-37.1 243.73-37.1 243.73 0 237.98 0ZM254.62-15.2L270.87-15.2Q270.77-17.45 269.85-19.03 268.92-20.6 267.27-21.48 265.62-22.35 263.47-22.35L263.47-22.35Q261.07-22.35 259.3-21.25 257.52-20.15 256.52-18.18 255.52-16.2 255.52-13.55L255.52-13.55Q255.52-10.7 256.6-8.6 257.67-6.5 259.6-5.35 261.52-4.2 264.02-4.2L264.02-4.2Q268.47-4.2 271.52-7.35L271.52-7.35 274.57-4.3Q272.62-2.15 269.82-0.98 267.02 0.2 263.57 0.2L263.57 0.2Q259.47 0.2 256.42-1.5 253.37-3.2 251.67-6.23 249.97-9.25 249.97-13.25L249.97-13.25Q249.97-17.25 251.67-20.28 253.37-23.3 256.42-25 259.47-26.7 263.42-26.75L263.42-26.75Q268.12-26.75 270.97-24.83 273.82-22.9 275.02-19.4 276.22-15.9 275.87-11.1L275.87-11.1 254.62-11.1 254.62-15.2ZM305.87-26.55L305.87-2.65Q305.87 1.2 304.17 4 302.47 6.8 299.37 8.33 296.27 9.85 292.07 9.85L292.07 9.85Q288.97 9.85 286.22 8.93 283.47 8 281.02 6.35L281.02 6.35 283.47 2.4Q285.37 3.8 287.37 4.58 289.37 5.35 291.82 5.35L291.82 5.35Q294.37 5.35 296.25 4.38 298.12 3.4 299.14 1.65 300.17-0.1 300.17-2.5L300.17-2.5 300.17-26.55 305.87-26.55ZM291.17-26.75L291.17-26.75Q294.67-26.8 297.14-25.28 299.62-23.75 300.92-20.9 302.22-18.05 302.17-14.05L302.17-14.05Q302.22-10.05 300.94-7.18 299.67-4.3 297.25-2.78 294.82-1.25 291.37-1.25L291.37-1.25Q287.77-1.25 285.07-2.88 282.37-4.5 280.87-7.4 279.37-10.3 279.37-14.1L279.37-14.1Q279.37-17.85 280.85-20.68 282.32-23.5 285-25.13 287.67-26.75 291.17-26.75ZM292.52-22.35L292.52-22.35Q290.27-22.35 288.52-21.28 286.77-20.2 285.8-18.3 284.82-16.4 284.77-13.95L284.77-13.95Q284.82-11.5 285.8-9.6 286.77-7.7 288.5-6.63 290.22-5.55 292.52-5.55L292.52-5.55Q294.77-5.55 296.5-6.63 298.22-7.7 299.19-9.6 300.17-11.5 300.17-13.95L300.17-13.95Q300.17-16.45 299.19-18.32 298.22-20.2 296.5-21.28 294.77-22.35 292.52-22.35ZM330.52-11.85L322.57-11.85Q319.77-11.85 318.42-11 317.07-10.15 317.07-8.2L317.07-8.2Q317.07-6.35 318.44-5.25 319.82-4.15 322.22-4.15L322.22-4.15Q324.37-4.15 326.07-4.9 327.77-5.65 328.77-6.93 329.77-8.2 329.82-9.8L329.82-9.8 330.92-4.95Q329.67-2.35 327.12-1.05 324.57 0.25 321.02 0.25L321.02 0.25Q318.17 0.25 316.07-0.85 313.97-1.95 312.82-3.83 311.67-5.7 311.67-8L311.67-8Q311.67-11.6 314.29-13.75 316.92-15.9 321.72-15.95L321.72-15.95 330.52-15.95 330.52-11.85ZM329.82 0L329.77-16.85Q329.77-19.45 328.17-20.9 326.57-22.35 323.42-22.35L323.42-22.35Q321.52-22.35 319.54-21.65 317.57-20.95 315.57-19.6L315.57-19.6 313.22-23.3Q315.07-24.45 316.72-25.2 318.37-25.95 320.24-26.35 322.12-26.75 324.67-26.75L324.67-26.75Q329.82-26.75 332.59-24.28 335.37-21.8 335.42-17.45L335.42-17.45 335.47 0 329.82 0ZM365.06-22.65L361.92-18.95Q360.52-20.4 358.62-21.2 356.72-22 354.31-22L354.31-22Q352.02-22 350.22-20.9 348.42-19.8 347.42-17.82 346.42-15.85 346.42-13.25L346.42-13.25Q346.42-10.65 347.42-8.68 348.42-6.7 350.22-5.58 352.02-4.45 354.31-4.45L354.31-4.45Q356.81-4.45 358.81-5.28 360.81-6.1 362.17-7.7L362.17-7.7 365.37-4.55Q363.56-2.3 360.69-1.05 357.81 0.2 354.06 0.2L354.06 0.2Q350.12 0.2 347.09-1.5 344.06-3.2 342.37-6.23 340.67-9.25 340.67-13.25L340.67-13.25Q340.67-17.25 342.37-20.28 344.06-23.3 347.09-25.03 350.12-26.75 354.06-26.75L354.06-26.75Q357.67-26.75 360.44-25.68 363.22-24.6 365.06-22.65L365.06-22.65ZM393.91-26.55L381.81 3.75Q380.56 6.8 378.36 8.38 376.16 9.95 373.16 9.95L373.16 9.95Q371.36 9.95 369.89 9.4 368.41 8.85 367.01 7.75L367.01 7.75 369.46 3.5Q371.26 4.8 372.91 4.8L372.91 4.8Q374.21 4.8 375.26 4.05 376.31 3.3 376.96 1.75L376.96 1.75 377.86-0.35 366.86-26.55 372.81-26.55 380.76-6.05 388.16-26.55 393.91-26.55Z" opacity="1" transform="matrix(1,0,0,1,0,0)" fill="#5010c2" class="slogan-text-1" data-fill-palette-color="secondary" id="text-1"></path></svg></g></svg></g></svg></g></svg></g><g></g></svg></g><defs></defs></svg><rect width="395.52" height="233.8532767407283" fill="none" stroke="none" visibility="hidden"></rect></g></svg></g></svg>